#define shade_width  14
#define shade_height 14
static unsigned char shade_bits[] = {
 0x00,0xc0,0x00,0xc0,0x00,0xc0,0x00,0xc0,0xf8,0xc7,0xf8,0xc7,
 0x00,0xc0,0xf8,0xc7,0xf0,0xc3,0xe0,0xc1,0xc0,0xc0,0x00,0xc0,
 0x00,0xc0,0x00,0xc0};
