#define iconify_width  14
#define iconify_height 14
static unsigned char iconify_bits[] = {
 0x00,0xc0,0x00,0xc0,0x00,0xc0,0x00,0xc0,0x00,0xc0,0x00,0xc0,
 0xf0,0xc3,0xf0,0xc3,0x00,0xc0,0x00,0xc0,0x00,0xc0,0x00,0xc0,
 0x00,0xc0,0x00,0xc0};
