#define max_width  14
#define max_height 14
static unsigned char max_bits[] = {
 0x00,0xc0,0x00,0xc0,0x00,0xc1,0x00,0xc3,0x00,0xc7,0x00,0xcf,
 0x00,0xc0,0x00,0xc0,0x3c,0xc0,0x38,0xc0,0x30,0xc0,0x20,0xc0,
 0x00,0xc0,0x00,0xc0};
